<mxfile host="65bd71144e">
    <diagram id="oGFqt5JFoHs9h23uPZYm" name="Page-1">
        <mxGraphModel dx="1300" dy="2026" grid="1" gridSize="10" guides="1" tooltips="1" connect="1" arrows="1" fold="1" page="1" pageScale="1" pageWidth="850" pageHeight="1100" math="0" shadow="0">
            <root>
                <mxCell id="0"/>
                <mxCell id="1" parent="0"/>
                <mxCell id="2" value="suppliers" style="swimlane;whiteSpace=wrap;html=1;fillColor=#1ba1e2;strokeColor=#006EAF;fontColor=#ffffff;" parent="1" vertex="1">
                    <mxGeometry x="310" y="-100" width="200" height="140" as="geometry">
                        <mxRectangle x="160" y="210" width="90" height="30" as="alternateBounds"/>
                    </mxGeometry>
                </mxCell>
                <mxCell id="3" value="account_id: integer, FK" style="rounded=0;whiteSpace=wrap;html=1;" parent="2" vertex="1">
                    <mxGeometry y="50" width="200" height="30" as="geometry"/>
                </mxCell>
                <mxCell id="6" value="phone_number: text" style="rounded=0;whiteSpace=wrap;html=1;" parent="2" vertex="1">
                    <mxGeometry y="80" width="200" height="30" as="geometry"/>
                </mxCell>
                <mxCell id="7" value="representative: text" style="rounded=0;whiteSpace=wrap;html=1;" parent="2" vertex="1">
                    <mxGeometry y="110" width="200" height="30" as="geometry"/>
                </mxCell>
                <mxCell id="67" value="&lt;span style=&quot;color: rgb(0, 0, 0);&quot;&gt;id: integer, inc, PK&lt;/span&gt;" style="rounded=0;whiteSpace=wrap;html=1;" parent="2" vertex="1">
                    <mxGeometry y="20" width="200" height="30" as="geometry"/>
                </mxCell>
                <mxCell id="8" value="raw_materials" style="swimlane;whiteSpace=wrap;html=1;fillColor=#e3c800;strokeColor=#B09500;fontColor=#000000;" parent="1" vertex="1">
                    <mxGeometry x="680" y="360" width="200" height="360" as="geometry">
                        <mxRectangle x="160" y="210" width="90" height="30" as="alternateBounds"/>
                    </mxGeometry>
                </mxCell>
                <mxCell id="9" value="raw_material_id: text, unique, not null" style="rounded=0;whiteSpace=wrap;html=1;" parent="8" vertex="1">
                    <mxGeometry y="50" width="200" height="30" as="geometry"/>
                </mxCell>
                <mxCell id="10" value="raw_type_id: text, not null, FK" style="rounded=0;whiteSpace=wrap;html=1;" parent="8" vertex="1">
                    <mxGeometry y="80" width="200" height="30" as="geometry"/>
                </mxCell>
                <mxCell id="11" value="raw_shape_id: text, not null, FK" style="rounded=0;whiteSpace=wrap;html=1;" parent="8" vertex="1">
                    <mxGeometry y="110" width="200" height="30" as="geometry"/>
                </mxCell>
                <mxCell id="12" value="&lt;span data-end=&quot;224&quot; data-start=&quot;206&quot;&gt;&lt;font style=&quot;color: rgb(0, 0, 0);&quot;&gt;inner_diameter&lt;/font&gt;&lt;/span&gt;: double, not null" style="rounded=0;whiteSpace=wrap;html=1;" parent="8" vertex="1">
                    <mxGeometry y="140" width="200" height="30" as="geometry"/>
                </mxCell>
                <mxCell id="28" value="&lt;span data-end=&quot;224&quot; data-start=&quot;206&quot;&gt;&lt;font style=&quot;color: rgb(0, 0, 0);&quot;&gt;outer_diameter&lt;/font&gt;&lt;/span&gt;: double, not null" style="rounded=0;whiteSpace=wrap;html=1;" parent="8" vertex="1">
                    <mxGeometry y="170" width="200" height="30" as="geometry"/>
                </mxCell>
                <mxCell id="30" value="constrains" style="swimlane;fontStyle=0;childLayout=stackLayout;horizontal=1;startSize=30;horizontalStack=0;resizeParent=1;resizeParentMax=0;resizeLast=0;collapsible=1;marginBottom=0;whiteSpace=wrap;html=1;fillColor=#f8cecc;strokeColor=#b85450;" parent="8" vertex="1">
                    <mxGeometry y="280" width="200" height="80" as="geometry"/>
                </mxCell>
                <mxCell id="31" value="Unique(raw_type_id, raw_shape_id, inner_diameter, outer_diameter)" style="text;strokeColor=none;fillColor=none;align=left;verticalAlign=middle;spacingLeft=4;spacingRight=4;overflow=hidden;points=[[0,0.5],[1,0.5]];portConstraint=eastwest;rotatable=0;whiteSpace=wrap;html=1;" parent="30" vertex="1">
                    <mxGeometry y="30" width="200" height="50" as="geometry"/>
                </mxCell>
                <mxCell id="49" value="unit_price: double, not null" style="rounded=0;whiteSpace=wrap;html=1;" parent="8" vertex="1">
                    <mxGeometry y="200" width="200" height="30" as="geometry"/>
                </mxCell>
                <mxCell id="50" value="scrap_price: double, not null" style="rounded=0;whiteSpace=wrap;html=1;" parent="8" vertex="1">
                    <mxGeometry y="230" width="200" height="30" as="geometry"/>
                </mxCell>
                <mxCell id="58" value="&lt;span style=&quot;color: rgb(0, 0, 0);&quot;&gt;id: integer, inc, PK&lt;/span&gt;" style="rounded=0;whiteSpace=wrap;html=1;" parent="8" vertex="1">
                    <mxGeometry y="20" width="200" height="30" as="geometry"/>
                </mxCell>
                <mxCell id="13" value="raw_types" style="swimlane;whiteSpace=wrap;html=1;fillColor=#e3c800;strokeColor=#B09500;fontColor=#000000;" parent="1" vertex="1">
                    <mxGeometry x="310" y="400" width="200" height="110" as="geometry">
                        <mxRectangle x="160" y="210" width="90" height="30" as="alternateBounds"/>
                    </mxGeometry>
                </mxCell>
                <mxCell id="14" value="id: integer, integer, PK" style="rounded=0;whiteSpace=wrap;html=1;" parent="13" vertex="1">
                    <mxGeometry y="20" width="200" height="30" as="geometry"/>
                </mxCell>
                <mxCell id="15" value="name: text, not null, unique" style="rounded=0;whiteSpace=wrap;html=1;" parent="13" vertex="1">
                    <mxGeometry y="50" width="200" height="30" as="geometry"/>
                </mxCell>
                <mxCell id="17" value="density: double, not null" style="rounded=0;whiteSpace=wrap;html=1;" parent="13" vertex="1">
                    <mxGeometry y="80" width="200" height="30" as="geometry"/>
                </mxCell>
                <mxCell id="19" value="raw_shapes" style="swimlane;whiteSpace=wrap;html=1;fillColor=#e3c800;strokeColor=#B09500;fontColor=#000000;" parent="1" vertex="1">
                    <mxGeometry x="310" y="540" width="200" height="110" as="geometry">
                        <mxRectangle x="160" y="210" width="90" height="30" as="alternateBounds"/>
                    </mxGeometry>
                </mxCell>
                <mxCell id="20" value="id, integer, integer, PK" style="rounded=0;whiteSpace=wrap;html=1;" parent="19" vertex="1">
                    <mxGeometry y="20" width="200" height="30" as="geometry"/>
                </mxCell>
                <mxCell id="21" value="name: text, not null, unique" style="rounded=0;whiteSpace=wrap;html=1;" parent="19" vertex="1">
                    <mxGeometry y="50" width="200" height="30" as="geometry"/>
                </mxCell>
                <mxCell id="24" value="shape_factor: double, not null" style="rounded=0;whiteSpace=wrap;html=1;" parent="19" vertex="1">
                    <mxGeometry y="80" width="200" height="30" as="geometry"/>
                </mxCell>
                <mxCell id="25" style="edgeStyle=orthogonalEdgeStyle;html=1;entryX=0;entryY=0.5;entryDx=0;entryDy=0;endArrow=none;endFill=0;startArrow=classic;startFill=1;" parent="1" source="14" target="10" edge="1">
                    <mxGeometry relative="1" as="geometry"/>
                </mxCell>
                <mxCell id="27" style="edgeStyle=orthogonalEdgeStyle;html=1;entryX=1;entryY=0.5;entryDx=0;entryDy=0;" parent="1" source="11" target="20" edge="1">
                    <mxGeometry relative="1" as="geometry"/>
                </mxCell>
                <mxCell id="42" value="clients" style="swimlane;whiteSpace=wrap;html=1;fillColor=#e3c800;strokeColor=#B09500;fontColor=#000000;" parent="1" vertex="1">
                    <mxGeometry x="310" y="140" width="240" height="200" as="geometry">
                        <mxRectangle x="160" y="210" width="90" height="30" as="alternateBounds"/>
                    </mxGeometry>
                </mxCell>
                <mxCell id="43" value="account_id: integer, FK" style="rounded=0;whiteSpace=wrap;html=1;" parent="42" vertex="1">
                    <mxGeometry y="50" width="240" height="30" as="geometry"/>
                </mxCell>
                <mxCell id="61" value="&lt;span style=&quot;color: rgb(0, 0, 0);&quot;&gt;id: integer, inc, PK&lt;/span&gt;" style="rounded=0;whiteSpace=wrap;html=1;" parent="42" vertex="1">
                    <mxGeometry y="20" width="240" height="30" as="geometry"/>
                </mxCell>
                <mxCell id="51" value="orders" style="swimlane;whiteSpace=wrap;html=1;fillColor=#e3c800;strokeColor=#B09500;fontColor=#000000;" parent="1" vertex="1">
                    <mxGeometry x="670" y="150" width="240" height="110" as="geometry">
                        <mxRectangle x="160" y="210" width="90" height="30" as="alternateBounds"/>
                    </mxGeometry>
                </mxCell>
                <mxCell id="52" value="&lt;span style=&quot;color: rgb(0, 0, 0);&quot;&gt;id: integer, inc, PK&lt;/span&gt;" style="rounded=0;whiteSpace=wrap;html=1;" parent="51" vertex="1">
                    <mxGeometry y="20" width="240" height="30" as="geometry"/>
                </mxCell>
                <mxCell id="53" value="date: date, not null" style="rounded=0;whiteSpace=wrap;html=1;" parent="51" vertex="1">
                    <mxGeometry y="50" width="240" height="30" as="geometry"/>
                </mxCell>
                <mxCell id="54" value="client_id: integer, FK" style="rounded=0;whiteSpace=wrap;html=1;" parent="51" vertex="1">
                    <mxGeometry y="80" width="240" height="30" as="geometry"/>
                </mxCell>
                <mxCell id="68" style="edgeStyle=orthogonalEdgeStyle;html=1;entryX=1;entryY=0.5;entryDx=0;entryDy=0;" parent="1" source="54" target="61" edge="1">
                    <mxGeometry relative="1" as="geometry"/>
                </mxCell>
                <mxCell id="69" value="order_items" style="swimlane;whiteSpace=wrap;html=1;fillColor=#e3c800;strokeColor=#B09500;fontColor=#000000;" parent="1" vertex="1">
                    <mxGeometry x="1920" y="140" width="240" height="170" as="geometry">
                        <mxRectangle x="160" y="210" width="90" height="30" as="alternateBounds"/>
                    </mxGeometry>
                </mxCell>
                <mxCell id="70" value="&lt;span style=&quot;color: rgb(0, 0, 0);&quot;&gt;id: integer, inc, PK&lt;/span&gt;" style="rounded=0;whiteSpace=wrap;html=1;" parent="69" vertex="1">
                    <mxGeometry y="20" width="240" height="30" as="geometry"/>
                </mxCell>
                <mxCell id="71" value="order_id: integer, FK" style="rounded=0;whiteSpace=wrap;html=1;" parent="69" vertex="1">
                    <mxGeometry y="50" width="240" height="30" as="geometry"/>
                </mxCell>
                <mxCell id="72" value="item_id: integer, FK" style="rounded=0;whiteSpace=wrap;html=1;" parent="69" vertex="1">
                    <mxGeometry y="80" width="240" height="30" as="geometry"/>
                </mxCell>
                <mxCell id="75" value="unit_price: double, not null" style="rounded=0;whiteSpace=wrap;html=1;" parent="69" vertex="1">
                    <mxGeometry y="110" width="240" height="30" as="geometry"/>
                </mxCell>
                <mxCell id="76" value="quantity: double, not null" style="rounded=0;whiteSpace=wrap;html=1;" parent="69" vertex="1">
                    <mxGeometry y="140" width="240" height="30" as="geometry"/>
                </mxCell>
                <mxCell id="73" style="edgeStyle=orthogonalEdgeStyle;html=1;entryX=1;entryY=0.5;entryDx=0;entryDy=0;exitX=0;exitY=0.5;exitDx=0;exitDy=0;" parent="1" source="71" target="52" edge="1">
                    <mxGeometry relative="1" as="geometry">
                        <Array as="points">
                            <mxPoint x="1900" y="205"/>
                            <mxPoint x="1900" y="170"/>
                            <mxPoint x="940" y="170"/>
                            <mxPoint x="940" y="185"/>
                        </Array>
                    </mxGeometry>
                </mxCell>
                <mxCell id="83" value="machines" style="swimlane;whiteSpace=wrap;html=1;fillColor=#e1d5e7;strokeColor=#9673a6;" parent="1" vertex="1">
                    <mxGeometry x="670" y="780" width="240" height="150" as="geometry">
                        <mxRectangle x="160" y="210" width="90" height="30" as="alternateBounds"/>
                    </mxGeometry>
                </mxCell>
                <mxCell id="84" value="machine_id: text, unique" style="rounded=0;whiteSpace=wrap;html=1;" parent="83" vertex="1">
                    <mxGeometry y="50" width="240" height="30" as="geometry"/>
                </mxCell>
                <mxCell id="85" value="name: text, unique" style="rounded=0;whiteSpace=wrap;html=1;" parent="83" vertex="1">
                    <mxGeometry y="80" width="240" height="30" as="geometry"/>
                </mxCell>
                <mxCell id="86" value="&lt;span data-end=&quot;224&quot; data-start=&quot;206&quot;&gt;min_inner_diameter&lt;/span&gt;&lt;span style=&quot;color: rgb(0, 0, 0);&quot;&gt;: double&lt;/span&gt;" style="rounded=0;whiteSpace=wrap;html=1;" parent="83" vertex="1">
                    <mxGeometry y="110" width="240" height="30" as="geometry"/>
                </mxCell>
                <mxCell id="87" value="&lt;span data-end=&quot;224&quot; data-start=&quot;206&quot;&gt;max_outer_diameter&lt;/span&gt;&lt;span style=&quot;color: rgb(0, 0, 0);&quot;&gt;: double,&lt;/span&gt;" style="rounded=0;whiteSpace=wrap;html=1;" parent="83" vertex="1">
                    <mxGeometry y="140" width="240" height="30" as="geometry"/>
                </mxCell>
                <mxCell id="89" value="machine_department_id: integer, FK" style="rounded=0;whiteSpace=wrap;html=1;" parent="83" vertex="1">
                    <mxGeometry y="170" width="240" height="30" as="geometry"/>
                </mxCell>
                <mxCell id="90" value="&lt;span style=&quot;color: rgb(0, 0, 0);&quot;&gt;id: integer, inc, PK&lt;/span&gt;" style="rounded=0;whiteSpace=wrap;html=1;" parent="83" vertex="1">
                    <mxGeometry y="20" width="240" height="30" as="geometry"/>
                </mxCell>
                <mxCell id="91" value="machine_departments" style="swimlane;whiteSpace=wrap;html=1;fillColor=#e1d5e7;strokeColor=#9673a6;" parent="1" vertex="1">
                    <mxGeometry x="310" y="980" width="240" height="110" as="geometry">
                        <mxRectangle x="160" y="210" width="90" height="30" as="alternateBounds"/>
                    </mxGeometry>
                </mxCell>
                <mxCell id="92" value="department_id: text, unique" style="rounded=0;whiteSpace=wrap;html=1;" parent="91" vertex="1">
                    <mxGeometry y="50" width="240" height="30" as="geometry"/>
                </mxCell>
                <mxCell id="93" value="name: text, unique" style="rounded=0;whiteSpace=wrap;html=1;" parent="91" vertex="1">
                    <mxGeometry y="80" width="240" height="30" as="geometry"/>
                </mxCell>
                <mxCell id="97" value="&lt;span style=&quot;color: rgb(0, 0, 0);&quot;&gt;id: integer, inc, PK&lt;/span&gt;" style="rounded=0;whiteSpace=wrap;html=1;" parent="91" vertex="1">
                    <mxGeometry y="20" width="240" height="30" as="geometry"/>
                </mxCell>
                <mxCell id="98" value="employee_departments" style="swimlane;whiteSpace=wrap;html=1;fillColor=#e3c800;strokeColor=#B09500;fontColor=#000000;" parent="1" vertex="1">
                    <mxGeometry x="310" y="1130" width="240" height="110" as="geometry">
                        <mxRectangle x="160" y="210" width="90" height="30" as="alternateBounds"/>
                    </mxGeometry>
                </mxCell>
                <mxCell id="99" value="department_id: text, unique" style="rounded=0;whiteSpace=wrap;html=1;" parent="98" vertex="1">
                    <mxGeometry y="50" width="240" height="30" as="geometry"/>
                </mxCell>
                <mxCell id="100" value="name: text, unique" style="rounded=0;whiteSpace=wrap;html=1;" parent="98" vertex="1">
                    <mxGeometry y="80" width="240" height="30" as="geometry"/>
                </mxCell>
                <mxCell id="101" value="&lt;span style=&quot;color: rgb(0, 0, 0);&quot;&gt;id: integer, inc, PK&lt;/span&gt;" style="rounded=0;whiteSpace=wrap;html=1;" parent="98" vertex="1">
                    <mxGeometry y="20" width="240" height="30" as="geometry"/>
                </mxCell>
                <mxCell id="102" style="edgeStyle=orthogonalEdgeStyle;html=1;exitX=0;exitY=0.5;exitDx=0;exitDy=0;entryX=1;entryY=0.5;entryDx=0;entryDy=0;" parent="1" source="89" target="97" edge="1">
                    <mxGeometry relative="1" as="geometry">
                        <mxPoint x="1265" y="815" as="sourcePoint"/>
                        <mxPoint x="1260" y="895" as="targetPoint"/>
                        <Array as="points">
                            <mxPoint x="610" y="965"/>
                            <mxPoint x="610" y="1015"/>
                        </Array>
                    </mxGeometry>
                </mxCell>
                <mxCell id="107" value="shipments" style="swimlane;whiteSpace=wrap;html=1;fillColor=#e3c800;strokeColor=#B09500;fontColor=#000000;" parent="1" vertex="1">
                    <mxGeometry x="1470" y="180" width="240" height="110" as="geometry">
                        <mxRectangle x="160" y="210" width="90" height="30" as="alternateBounds"/>
                    </mxGeometry>
                </mxCell>
                <mxCell id="108" value="&lt;span style=&quot;color: rgb(0, 0, 0);&quot;&gt;id: integer, inc, PK&lt;/span&gt;" style="rounded=0;whiteSpace=wrap;html=1;" parent="107" vertex="1">
                    <mxGeometry y="20" width="240" height="30" as="geometry"/>
                </mxCell>
                <mxCell id="109" value="date: date, not null" style="rounded=0;whiteSpace=wrap;html=1;" parent="107" vertex="1">
                    <mxGeometry y="50" width="240" height="30" as="geometry"/>
                </mxCell>
                <mxCell id="110" value="order_id: integer, FK" style="rounded=0;whiteSpace=wrap;html=1;" parent="107" vertex="1">
                    <mxGeometry y="80" width="240" height="30" as="geometry"/>
                </mxCell>
                <mxCell id="111" value="shipment_items" style="swimlane;whiteSpace=wrap;html=1;fillColor=#e3c800;strokeColor=#B09500;fontColor=#000000;" parent="1" vertex="1">
                    <mxGeometry x="1920" y="350" width="240" height="140" as="geometry">
                        <mxRectangle x="160" y="210" width="90" height="30" as="alternateBounds"/>
                    </mxGeometry>
                </mxCell>
                <mxCell id="112" value="&lt;span style=&quot;color: rgb(0, 0, 0);&quot;&gt;id: integer, inc, PK&lt;/span&gt;" style="rounded=0;whiteSpace=wrap;html=1;" parent="111" vertex="1">
                    <mxGeometry y="20" width="240" height="30" as="geometry"/>
                </mxCell>
                <mxCell id="113" value="shipment_id: integer, FK" style="rounded=0;whiteSpace=wrap;html=1;" parent="111" vertex="1">
                    <mxGeometry y="50" width="240" height="30" as="geometry"/>
                </mxCell>
                <mxCell id="114" value="item_id: integer, FK" style="rounded=0;whiteSpace=wrap;html=1;" parent="111" vertex="1">
                    <mxGeometry y="80" width="240" height="30" as="geometry"/>
                </mxCell>
                <mxCell id="116" value="quantity: double, not null" style="rounded=0;whiteSpace=wrap;html=1;" parent="111" vertex="1">
                    <mxGeometry y="110" width="240" height="30" as="geometry"/>
                </mxCell>
                <mxCell id="119" style="edgeStyle=orthogonalEdgeStyle;html=1;entryX=1;entryY=0.5;entryDx=0;entryDy=0;" parent="1" source="113" target="108" edge="1">
                    <mxGeometry relative="1" as="geometry">
                        <Array as="points">
                            <mxPoint x="1880" y="425"/>
                            <mxPoint x="1880" y="215"/>
                        </Array>
                    </mxGeometry>
                </mxCell>
                <mxCell id="121" value="machine_item_production_rates" style="swimlane;whiteSpace=wrap;html=1;fillColor=#1ba1e2;strokeColor=#006EAF;fontColor=#ffffff;" parent="1" vertex="1">
                    <mxGeometry x="1920" y="520" width="240" height="270" as="geometry">
                        <mxRectangle x="160" y="210" width="90" height="30" as="alternateBounds"/>
                    </mxGeometry>
                </mxCell>
                <mxCell id="122" value="date: date" style="rounded=0;whiteSpace=wrap;html=1;" parent="121" vertex="1">
                    <mxGeometry y="50" width="240" height="30" as="geometry"/>
                </mxCell>
                <mxCell id="123" value="item_id: integer, FK" style="rounded=0;whiteSpace=wrap;html=1;" parent="121" vertex="1">
                    <mxGeometry y="80" width="240" height="30" as="geometry"/>
                </mxCell>
                <mxCell id="124" value="&lt;span style=&quot;color: rgb(0, 0, 0);&quot;&gt;id: integer, inc, PK&lt;/span&gt;" style="rounded=0;whiteSpace=wrap;html=1;" parent="121" vertex="1">
                    <mxGeometry y="20" width="240" height="30" as="geometry"/>
                </mxCell>
                <mxCell id="125" value="machine_id: integer, FK" style="rounded=0;whiteSpace=wrap;html=1;" parent="121" vertex="1">
                    <mxGeometry y="110" width="240" height="30" as="geometry"/>
                </mxCell>
                <mxCell id="126" value="rate: integer" style="rounded=0;whiteSpace=wrap;html=1;" parent="121" vertex="1">
                    <mxGeometry y="140" width="240" height="30" as="geometry"/>
                </mxCell>
                <mxCell id="127" value="constrains" style="swimlane;fontStyle=0;childLayout=stackLayout;horizontal=1;startSize=30;horizontalStack=0;resizeParent=1;resizeParentMax=0;resizeLast=0;collapsible=1;marginBottom=0;whiteSpace=wrap;html=1;fillColor=#f8cecc;strokeColor=#b85450;" parent="121" vertex="1">
                    <mxGeometry y="190" width="240" height="80" as="geometry"/>
                </mxCell>
                <mxCell id="128" value="Unique(date, item_id, machine_id)" style="text;strokeColor=none;fillColor=none;align=center;verticalAlign=middle;spacingLeft=4;spacingRight=4;overflow=hidden;points=[[0,0.5],[1,0.5]];portConstraint=eastwest;rotatable=0;whiteSpace=wrap;html=1;" parent="127" vertex="1">
                    <mxGeometry y="30" width="240" height="50" as="geometry"/>
                </mxCell>
                <mxCell id="129" style="html=1;entryX=1;entryY=0.5;entryDx=0;entryDy=0;strokeColor=#660000;edgeStyle=orthogonalEdgeStyle;exitX=0;exitY=0.75;exitDx=0;exitDy=0;" parent="1" source="123" target="361" edge="1">
                    <mxGeometry relative="1" as="geometry">
                        <Array as="points">
                            <mxPoint x="1920" y="620"/>
                            <mxPoint x="1890" y="620"/>
                            <mxPoint x="1890" y="395"/>
                        </Array>
                    </mxGeometry>
                </mxCell>
                <mxCell id="131" style="edgeStyle=orthogonalEdgeStyle;html=1;entryX=1;entryY=0.25;entryDx=0;entryDy=0;" parent="1" source="125" target="90" edge="1">
                    <mxGeometry relative="1" as="geometry">
                        <Array as="points">
                            <mxPoint x="970" y="640"/>
                            <mxPoint x="970" y="808"/>
                        </Array>
                    </mxGeometry>
                </mxCell>
                <mxCell id="132" value="employee" style="swimlane;whiteSpace=wrap;html=1;fillColor=#e3c800;strokeColor=#B09500;fontColor=#000000;" parent="1" vertex="1">
                    <mxGeometry x="670" y="1050" width="250" height="230" as="geometry">
                        <mxRectangle x="160" y="210" width="90" height="30" as="alternateBounds"/>
                    </mxGeometry>
                </mxCell>
                <mxCell id="133" value="employee_department_id: integer, FK" style="rounded=0;whiteSpace=wrap;html=1;" parent="132" vertex="1">
                    <mxGeometry y="80" width="250" height="30" as="geometry"/>
                </mxCell>
                <mxCell id="134" value="&lt;span style=&quot;color: rgb(0, 0, 0);&quot;&gt;account_id: text, unique&lt;/span&gt;" style="rounded=0;whiteSpace=wrap;html=1;" parent="132" vertex="1">
                    <mxGeometry y="50" width="250" height="30" as="geometry"/>
                </mxCell>
                <mxCell id="135" value="&lt;span style=&quot;color: rgb(0, 0, 0);&quot;&gt;id: integer, inc, PK&lt;/span&gt;" style="rounded=0;whiteSpace=wrap;html=1;" parent="132" vertex="1">
                    <mxGeometry y="20" width="250" height="30" as="geometry"/>
                </mxCell>
                <mxCell id="138" value="phone_number: text, unique" style="rounded=0;whiteSpace=wrap;html=1;" parent="132" vertex="1">
                    <mxGeometry y="110" width="250" height="30" as="geometry"/>
                </mxCell>
                <mxCell id="139" value="start_date: date" style="rounded=0;whiteSpace=wrap;html=1;" parent="132" vertex="1">
                    <mxGeometry y="140" width="250" height="30" as="geometry"/>
                </mxCell>
                <mxCell id="386" value="shift_hours, integer" style="rounded=0;whiteSpace=wrap;html=1;" parent="132" vertex="1">
                    <mxGeometry y="170" width="250" height="30" as="geometry"/>
                </mxCell>
                <mxCell id="391" value="end_date: date" style="rounded=0;whiteSpace=wrap;html=1;" parent="132" vertex="1">
                    <mxGeometry y="200" width="250" height="30" as="geometry"/>
                </mxCell>
                <mxCell id="140" value="permanent_employee" style="swimlane;whiteSpace=wrap;html=1;fillColor=#1ba1e2;strokeColor=#006EAF;fontColor=#ffffff;" parent="1" vertex="1">
                    <mxGeometry x="1470" y="1020" width="250" height="250" as="geometry">
                        <mxRectangle x="160" y="210" width="90" height="30" as="alternateBounds"/>
                    </mxGeometry>
                </mxCell>
                <mxCell id="141" value="base_salary: double" style="rounded=0;whiteSpace=wrap;html=1;" parent="140" vertex="1">
                    <mxGeometry y="80" width="250" height="30" as="geometry"/>
                </mxCell>
                <mxCell id="142" value="&lt;span style=&quot;color: rgb(0, 0, 0);&quot;&gt;employee_id: integer, FK&lt;/span&gt;" style="rounded=0;whiteSpace=wrap;html=1;" parent="140" vertex="1">
                    <mxGeometry y="50" width="250" height="30" as="geometry"/>
                </mxCell>
                <mxCell id="143" value="&lt;span style=&quot;color: rgb(0, 0, 0);&quot;&gt;id: integer, inc, PK&lt;/span&gt;" style="rounded=0;whiteSpace=wrap;html=1;" parent="140" vertex="1">
                    <mxGeometry y="20" width="250" height="30" as="geometry"/>
                </mxCell>
                <mxCell id="144" value="insurance: double" style="rounded=0;whiteSpace=wrap;html=1;" parent="140" vertex="1">
                    <mxGeometry y="110" width="250" height="30" as="geometry"/>
                </mxCell>
                <mxCell id="169" value="constrains" style="swimlane;fontStyle=0;childLayout=stackLayout;horizontal=1;startSize=30;horizontalStack=0;resizeParent=1;resizeParentMax=0;resizeLast=0;collapsible=1;marginBottom=0;whiteSpace=wrap;html=1;fillColor=#f8cecc;strokeColor=#b85450;" parent="140" vertex="1">
                    <mxGeometry y="170" width="250" height="80" as="geometry"/>
                </mxCell>
                <mxCell id="170" value="employee_id &lt;b&gt;not in &lt;/b&gt;casual_employee.employee_id" style="text;strokeColor=none;fillColor=none;align=left;verticalAlign=middle;spacingLeft=4;spacingRight=4;overflow=hidden;points=[[0,0.5],[1,0.5]];portConstraint=eastwest;rotatable=0;whiteSpace=wrap;html=1;" parent="169" vertex="1">
                    <mxGeometry y="30" width="250" height="50" as="geometry"/>
                </mxCell>
                <mxCell id="148" style="edgeStyle=orthogonalEdgeStyle;html=1;entryX=1;entryY=0.5;entryDx=0;entryDy=0;exitX=0;exitY=0.5;exitDx=0;exitDy=0;" parent="1" source="133" target="101" edge="1">
                    <mxGeometry relative="1" as="geometry"/>
                </mxCell>
                <mxCell id="150" style="edgeStyle=orthogonalEdgeStyle;html=1;entryX=1;entryY=0.5;entryDx=0;entryDy=0;" parent="1" source="142" target="135" edge="1">
                    <mxGeometry relative="1" as="geometry"/>
                </mxCell>
                <mxCell id="151" value="casual_employee" style="swimlane;whiteSpace=wrap;html=1;fillColor=#1ba1e2;strokeColor=#006EAF;fontColor=#ffffff;" parent="1" vertex="1">
                    <mxGeometry x="1470" y="740" width="250" height="240" as="geometry">
                        <mxRectangle x="160" y="210" width="90" height="30" as="alternateBounds"/>
                    </mxGeometry>
                </mxCell>
                <mxCell id="152" value="day_rate: double" style="rounded=0;whiteSpace=wrap;html=1;" parent="151" vertex="1">
                    <mxGeometry y="80" width="250" height="30" as="geometry"/>
                </mxCell>
                <mxCell id="153" value="&lt;span style=&quot;color: rgb(0, 0, 0);&quot;&gt;employee_id: integer, FK&lt;/span&gt;" style="rounded=0;whiteSpace=wrap;html=1;" parent="151" vertex="1">
                    <mxGeometry y="50" width="250" height="30" as="geometry"/>
                </mxCell>
                <mxCell id="154" value="&lt;span style=&quot;color: rgb(0, 0, 0);&quot;&gt;id: integer, inc, PK&lt;/span&gt;" style="rounded=0;whiteSpace=wrap;html=1;" parent="151" vertex="1">
                    <mxGeometry y="20" width="250" height="30" as="geometry"/>
                </mxCell>
                <mxCell id="171" value="constrains" style="swimlane;fontStyle=0;childLayout=stackLayout;horizontal=1;startSize=30;horizontalStack=0;resizeParent=1;resizeParentMax=0;resizeLast=0;collapsible=1;marginBottom=0;whiteSpace=wrap;html=1;fillColor=#f8cecc;strokeColor=#b85450;" parent="151" vertex="1">
                    <mxGeometry y="160" width="250" height="80" as="geometry"/>
                </mxCell>
                <mxCell id="172" value="employee_id &lt;b&gt;not in &lt;/b&gt;permanent_employee.employee_id" style="text;strokeColor=none;fillColor=none;align=left;verticalAlign=middle;spacingLeft=4;spacingRight=4;overflow=hidden;points=[[0,0.5],[1,0.5]];portConstraint=eastwest;rotatable=0;whiteSpace=wrap;html=1;" parent="171" vertex="1">
                    <mxGeometry y="30" width="250" height="50" as="geometry"/>
                </mxCell>
                <mxCell id="157" style="edgeStyle=orthogonalEdgeStyle;html=1;entryX=1;entryY=0.25;entryDx=0;entryDy=0;exitX=0;exitY=0.5;exitDx=0;exitDy=0;" parent="1" source="153" target="135" edge="1">
                    <mxGeometry relative="1" as="geometry">
                        <Array as="points">
                            <mxPoint x="1040" y="805"/>
                            <mxPoint x="1040" y="1078"/>
                        </Array>
                    </mxGeometry>
                </mxCell>
                <mxCell id="164" value="payroll_records" style="swimlane;whiteSpace=wrap;html=1;fillColor=#1ba1e2;strokeColor=#006EAF;fontColor=#ffffff;" parent="1" vertex="1">
                    <mxGeometry x="1920" y="802" width="250" height="868" as="geometry">
                        <mxRectangle x="160" y="210" width="90" height="30" as="alternateBounds"/>
                    </mxGeometry>
                </mxCell>
                <mxCell id="165" value="payroll_month: integer" style="rounded=0;whiteSpace=wrap;html=1;" parent="164" vertex="1">
                    <mxGeometry y="110" width="250" height="30" as="geometry"/>
                </mxCell>
                <mxCell id="166" value="&lt;span style=&quot;color: rgb(0, 0, 0);&quot;&gt;permanent_employee_id: integer, FK&lt;/span&gt;" style="rounded=0;whiteSpace=wrap;html=1;" parent="164" vertex="1">
                    <mxGeometry y="50" width="250" height="30" as="geometry"/>
                </mxCell>
                <mxCell id="167" value="&lt;span style=&quot;color: rgb(0, 0, 0);&quot;&gt;id: integer, inc, PK&lt;/span&gt;" style="rounded=0;whiteSpace=wrap;html=1;" parent="164" vertex="1">
                    <mxGeometry y="20" width="250" height="30" as="geometry"/>
                </mxCell>
                <mxCell id="224" value="payroll_year: integer" style="rounded=0;whiteSpace=wrap;html=1;" parent="164" vertex="1">
                    <mxGeometry y="80" width="250" height="30" as="geometry"/>
                </mxCell>
                <mxCell id="225" value="base_salary_amount: double" style="rounded=0;whiteSpace=wrap;html=1;" parent="164" vertex="1">
                    <mxGeometry y="140" width="250" height="30" as="geometry"/>
                </mxCell>
                <mxCell id="226" value="overtime_hours: double!" style="rounded=0;whiteSpace=wrap;html=1;fillColor=#fff2cc;strokeColor=#d6b656;" parent="164" vertex="1">
                    <mxGeometry y="170" width="250" height="30" as="geometry"/>
                </mxCell>
                <mxCell id="227" value="overtime_hour_rate: double" style="rounded=0;whiteSpace=wrap;html=1;" parent="164" vertex="1">
                    <mxGeometry y="200" width="250" height="30" as="geometry"/>
                </mxCell>
                <mxCell id="228" value="insurance_deduction: double" style="rounded=0;whiteSpace=wrap;html=1;" parent="164" vertex="1">
                    <mxGeometry y="230" width="250" height="30" as="geometry"/>
                </mxCell>
                <mxCell id="229" value="absence_days: double!" style="rounded=0;whiteSpace=wrap;html=1;fillColor=#fff2cc;strokeColor=#d6b656;" parent="164" vertex="1">
                    <mxGeometry y="260" width="250" height="30" as="geometry"/>
                </mxCell>
                <mxCell id="230" value="absence_day_deduction_rate: double" style="rounded=0;whiteSpace=wrap;html=1;" parent="164" vertex="1">
                    <mxGeometry y="290" width="250" height="30" as="geometry"/>
                </mxCell>
                <mxCell id="232" value="late_hours: double!" style="rounded=0;whiteSpace=wrap;html=1;fillColor=#fff2cc;strokeColor=#d6b656;" parent="164" vertex="1">
                    <mxGeometry y="320" width="250" height="30" as="geometry"/>
                </mxCell>
                <mxCell id="233" value="late_hour_deduction_rate: double" style="rounded=0;whiteSpace=wrap;html=1;" parent="164" vertex="1">
                    <mxGeometry y="350" width="250" height="30" as="geometry"/>
                </mxCell>
                <mxCell id="235" value="&lt;span style=&quot;color: rgb(0, 0, 0);&quot;&gt;salary_advance_amount&lt;/span&gt;: double" style="rounded=0;whiteSpace=wrap;html=1;" parent="164" vertex="1">
                    <mxGeometry y="380" width="250" height="30" as="geometry"/>
                </mxCell>
                <mxCell id="236" value="monthly_bonus_amount: double" style="rounded=0;whiteSpace=wrap;html=1;" parent="164" vertex="1">
                    <mxGeometry y="410" width="250" height="30" as="geometry"/>
                </mxCell>
                <mxCell id="237" value="monthly_bonus_percentage: double" style="rounded=0;whiteSpace=wrap;html=1;" parent="164" vertex="1">
                    <mxGeometry y="440" width="250" height="30" as="geometry"/>
                </mxCell>
                <mxCell id="238" value="someBunishmedWay!(may late or abcence): double!" style="rounded=0;whiteSpace=wrap;html=1;fillColor=#fff2cc;strokeColor=#d6b656;" parent="164" vertex="1">
                    <mxGeometry y="470" width="250" height="30" as="geometry"/>
                </mxCell>
                <mxCell id="239" value="someBunishmedWayRate!(may late or abcence): double!" style="rounded=0;whiteSpace=wrap;html=1;fillColor=#fff2cc;strokeColor=#d6b656;" parent="164" vertex="1">
                    <mxGeometry y="500" width="250" height="30" as="geometry"/>
                </mxCell>
                <mxCell id="241" value="constrains" style="swimlane;fontStyle=0;childLayout=stackLayout;horizontal=1;startSize=30;horizontalStack=0;resizeParent=1;resizeParentMax=0;resizeLast=0;collapsible=1;marginBottom=0;whiteSpace=wrap;html=1;fillColor=#f8cecc;strokeColor=#b85450;" parent="164" vertex="1">
                    <mxGeometry y="558" width="250" height="310" as="geometry"/>
                </mxCell>
                <mxCell id="242" value="&lt;span style=&quot;color: rgb(0, 0, 0); text-align: center;&quot;&gt;payroll_year &amp;gt; 0&lt;/span&gt;" style="text;align=left;verticalAlign=middle;spacingLeft=4;spacingRight=4;overflow=hidden;points=[[0,0.5],[1,0.5]];portConstraint=eastwest;rotatable=0;whiteSpace=wrap;html=1;fillColor=#f5f5f5;fontColor=#333333;strokeColor=#666666;" parent="241" vertex="1">
                    <mxGeometry y="30" width="250" height="20" as="geometry"/>
                </mxCell>
                <mxCell id="243" value="&lt;span style=&quot;color: rgb(0, 0, 0); text-align: center;&quot;&gt;12 &amp;gt;= payroll_month &amp;gt;= 1&lt;/span&gt;" style="text;align=left;verticalAlign=middle;spacingLeft=4;spacingRight=4;overflow=hidden;points=[[0,0.5],[1,0.5]];portConstraint=eastwest;rotatable=0;whiteSpace=wrap;html=1;fillColor=#f5f5f5;fontColor=#333333;strokeColor=#666666;" parent="241" vertex="1">
                    <mxGeometry y="50" width="250" height="20" as="geometry"/>
                </mxCell>
                <mxCell id="244" value="&lt;span style=&quot;color: rgb(0, 0, 0); text-align: center;&quot;&gt;base_salary_amount &amp;gt; 0&lt;/span&gt;" style="text;align=left;verticalAlign=middle;spacingLeft=4;spacingRight=4;overflow=hidden;points=[[0,0.5],[1,0.5]];portConstraint=eastwest;rotatable=0;whiteSpace=wrap;html=1;fillColor=#f5f5f5;fontColor=#333333;strokeColor=#666666;" parent="241" vertex="1">
                    <mxGeometry y="70" width="250" height="20" as="geometry"/>
                </mxCell>
                <mxCell id="245" value="&lt;span style=&quot;color: rgb(0, 0, 0); text-align: center;&quot;&gt;overtime_hours &amp;gt;= 0&lt;/span&gt;" style="text;align=left;verticalAlign=middle;spacingLeft=4;spacingRight=4;overflow=hidden;points=[[0,0.5],[1,0.5]];portConstraint=eastwest;rotatable=0;whiteSpace=wrap;html=1;fillColor=#f5f5f5;fontColor=#333333;strokeColor=#666666;" parent="241" vertex="1">
                    <mxGeometry y="90" width="250" height="20" as="geometry"/>
                </mxCell>
                <mxCell id="246" value="&lt;span style=&quot;color: rgb(0, 0, 0); text-align: center;&quot;&gt;overtime_hour_rate&lt;/span&gt;&amp;nbsp;&amp;gt;= 0" style="text;align=left;verticalAlign=middle;spacingLeft=4;spacingRight=4;overflow=hidden;points=[[0,0.5],[1,0.5]];portConstraint=eastwest;rotatable=0;whiteSpace=wrap;html=1;fillColor=#f5f5f5;fontColor=#333333;strokeColor=#666666;" parent="241" vertex="1">
                    <mxGeometry y="110" width="250" height="20" as="geometry"/>
                </mxCell>
                <mxCell id="247" value="&lt;span style=&quot;color: rgb(0, 0, 0); text-align: center;&quot;&gt;insurance_deduction&lt;/span&gt;&amp;nbsp;&amp;gt;= 0" style="text;align=left;verticalAlign=middle;spacingLeft=4;spacingRight=4;overflow=hidden;points=[[0,0.5],[1,0.5]];portConstraint=eastwest;rotatable=0;whiteSpace=wrap;html=1;fillColor=#f5f5f5;fontColor=#333333;strokeColor=#666666;" parent="241" vertex="1">
                    <mxGeometry y="130" width="250" height="20" as="geometry"/>
                </mxCell>
                <mxCell id="248" value="&lt;span style=&quot;color: rgb(0, 0, 0); text-align: center;&quot;&gt;absence_days&lt;/span&gt;&amp;nbsp;&amp;gt;= 0" style="text;align=left;verticalAlign=middle;spacingLeft=4;spacingRight=4;overflow=hidden;points=[[0,0.5],[1,0.5]];portConstraint=eastwest;rotatable=0;whiteSpace=wrap;html=1;fillColor=#f5f5f5;fontColor=#333333;strokeColor=#666666;" parent="241" vertex="1">
                    <mxGeometry y="150" width="250" height="20" as="geometry"/>
                </mxCell>
                <mxCell id="250" value="&lt;span style=&quot;color: rgb(0, 0, 0); text-align: center;&quot;&gt;late_hours&lt;/span&gt;&amp;nbsp;&amp;gt;= 0" style="text;align=left;verticalAlign=middle;spacingLeft=4;spacingRight=4;overflow=hidden;points=[[0,0.5],[1,0.5]];portConstraint=eastwest;rotatable=0;whiteSpace=wrap;html=1;fillColor=#f5f5f5;fontColor=#333333;strokeColor=#666666;" parent="241" vertex="1">
                    <mxGeometry y="170" width="250" height="20" as="geometry"/>
                </mxCell>
                <mxCell id="249" value="&lt;span style=&quot;color: rgb(0, 0, 0); text-align: center;&quot;&gt;late_hour_deduction_rate&lt;/span&gt;&amp;nbsp;&amp;gt;= 0" style="text;align=left;verticalAlign=middle;spacingLeft=4;spacingRight=4;overflow=hidden;points=[[0,0.5],[1,0.5]];portConstraint=eastwest;rotatable=0;whiteSpace=wrap;html=1;fillColor=#f5f5f5;fontColor=#333333;strokeColor=#666666;" parent="241" vertex="1">
                    <mxGeometry y="190" width="250" height="20" as="geometry"/>
                </mxCell>
                <mxCell id="251" value="&lt;span style=&quot;color: rgb(0, 0, 0); text-align: center;&quot;&gt;salary_advance_amount&lt;/span&gt;&amp;nbsp;&amp;gt;= 0" style="text;align=left;verticalAlign=middle;spacingLeft=4;spacingRight=4;overflow=hidden;points=[[0,0.5],[1,0.5]];portConstraint=eastwest;rotatable=0;whiteSpace=wrap;html=1;fillColor=#f5f5f5;fontColor=#333333;strokeColor=#666666;" parent="241" vertex="1">
                    <mxGeometry y="210" width="250" height="20" as="geometry"/>
                </mxCell>
                <mxCell id="252" value="&lt;span style=&quot;color: rgb(0, 0, 0); text-align: center;&quot;&gt;monthly_bonus_amount&lt;/span&gt;&amp;nbsp;&amp;gt;= 0" style="text;align=left;verticalAlign=middle;spacingLeft=4;spacingRight=4;overflow=hidden;points=[[0,0.5],[1,0.5]];portConstraint=eastwest;rotatable=0;whiteSpace=wrap;html=1;fillColor=#f5f5f5;fontColor=#333333;strokeColor=#666666;" parent="241" vertex="1">
                    <mxGeometry y="230" width="250" height="20" as="geometry"/>
                </mxCell>
                <mxCell id="255" value="&lt;span style=&quot;color: rgb(0, 0, 0); text-align: center;&quot;&gt;monthly_bonus_percentage&lt;/span&gt;&amp;nbsp;&amp;gt;= 0" style="text;align=left;verticalAlign=middle;spacingLeft=4;spacingRight=4;overflow=hidden;points=[[0,0.5],[1,0.5]];portConstraint=eastwest;rotatable=0;whiteSpace=wrap;html=1;fillColor=#f5f5f5;fontColor=#333333;strokeColor=#666666;" parent="241" vertex="1">
                    <mxGeometry y="250" width="250" height="20" as="geometry"/>
                </mxCell>
                <mxCell id="254" value="&lt;span style=&quot;color: rgb(0, 0, 0); text-align: center;&quot;&gt;someBunishmedWay&lt;/span&gt;&amp;nbsp;&amp;gt;= 0" style="text;align=left;verticalAlign=middle;spacingLeft=4;spacingRight=4;overflow=hidden;points=[[0,0.5],[1,0.5]];portConstraint=eastwest;rotatable=0;whiteSpace=wrap;html=1;fillColor=#f5f5f5;fontColor=#333333;strokeColor=#666666;" parent="241" vertex="1">
                    <mxGeometry y="270" width="250" height="20" as="geometry"/>
                </mxCell>
                <mxCell id="253" value="&lt;span style=&quot;color: rgb(0, 0, 0); text-align: center;&quot;&gt;someBunishmedWayRate&lt;/span&gt;&amp;nbsp;&amp;gt;= 0" style="text;align=left;verticalAlign=middle;spacingLeft=4;spacingRight=4;overflow=hidden;points=[[0,0.5],[1,0.5]];portConstraint=eastwest;rotatable=0;whiteSpace=wrap;html=1;fillColor=#f5f5f5;fontColor=#333333;strokeColor=#666666;" parent="241" vertex="1">
                    <mxGeometry y="290" width="250" height="20" as="geometry"/>
                </mxCell>
                <mxCell id="173" style="edgeStyle=orthogonalEdgeStyle;html=1;entryX=1;entryY=0.25;entryDx=0;entryDy=0;" parent="1" source="166" target="143" edge="1">
                    <mxGeometry relative="1" as="geometry">
                        <Array as="points">
                            <mxPoint x="1900" y="867"/>
                            <mxPoint x="1900" y="1048"/>
                        </Array>
                    </mxGeometry>
                </mxCell>
                <mxCell id="175" value="production_employee" style="swimlane;whiteSpace=wrap;html=1;fillColor=#e1d5e7;strokeColor=#9673a6;" parent="1" vertex="1">
                    <mxGeometry x="1470" y="1310" width="250" height="110" as="geometry">
                        <mxRectangle x="160" y="210" width="90" height="30" as="alternateBounds"/>
                    </mxGeometry>
                </mxCell>
                <mxCell id="177" value="&lt;span style=&quot;color: rgb(0, 0, 0);&quot;&gt;employee_id: integer, FK&lt;/span&gt;" style="rounded=0;whiteSpace=wrap;html=1;" parent="175" vertex="1">
                    <mxGeometry y="50" width="250" height="30" as="geometry"/>
                </mxCell>
                <mxCell id="178" value="&lt;span style=&quot;color: rgb(0, 0, 0);&quot;&gt;id: integer, inc, PK&lt;/span&gt;" style="rounded=0;whiteSpace=wrap;html=1;" parent="175" vertex="1">
                    <mxGeometry y="20" width="250" height="30" as="geometry"/>
                </mxCell>
                <mxCell id="179" value="machine_department_id: integer, FK" style="rounded=0;whiteSpace=wrap;html=1;" parent="175" vertex="1">
                    <mxGeometry y="80" width="250" height="30" as="geometry"/>
                </mxCell>
                <mxCell id="183" style="edgeStyle=orthogonalEdgeStyle;html=1;entryX=1;entryY=0.75;entryDx=0;entryDy=0;" parent="1" source="177" target="135" edge="1">
                    <mxGeometry relative="1" as="geometry">
                        <Array as="points">
                            <mxPoint x="1030" y="1375"/>
                            <mxPoint x="1030" y="1093"/>
                        </Array>
                    </mxGeometry>
                </mxCell>
                <mxCell id="184" value="shift_productions" style="swimlane;whiteSpace=wrap;html=1;fillColor=#e1d5e7;strokeColor=#9673a6;" parent="1" vertex="1">
                    <mxGeometry x="310" y="1510" width="250" height="210" as="geometry">
                        <mxRectangle x="160" y="210" width="90" height="30" as="alternateBounds"/>
                    </mxGeometry>
                </mxCell>
                <mxCell id="186" value="&lt;span style=&quot;color: rgb(0, 0, 0);&quot;&gt;start_date: date&lt;/span&gt;" style="rounded=0;whiteSpace=wrap;html=1;" parent="184" vertex="1">
                    <mxGeometry y="50" width="250" height="30" as="geometry"/>
                </mxCell>
                <mxCell id="197" value="&lt;span style=&quot;color: rgb(0, 0, 0);&quot;&gt;id: integer, inc, PK&lt;/span&gt;" style="rounded=0;whiteSpace=wrap;html=1;" parent="184" vertex="1">
                    <mxGeometry y="20" width="250" height="30" as="geometry"/>
                </mxCell>
                <mxCell id="204" value="constrains" style="swimlane;fontStyle=0;childLayout=stackLayout;horizontal=1;startSize=30;horizontalStack=0;resizeParent=1;resizeParentMax=0;resizeLast=0;collapsible=1;marginBottom=0;whiteSpace=wrap;html=1;fillColor=#f8cecc;strokeColor=#b85450;" parent="184" vertex="1">
                    <mxGeometry y="160" width="250" height="50" as="geometry"/>
                </mxCell>
                <mxCell id="205" value="name: (morning | night | overtime)" style="text;strokeColor=#666666;fillColor=#f5f5f5;align=left;verticalAlign=middle;spacingLeft=4;spacingRight=4;overflow=hidden;points=[[0,0.5],[1,0.5]];portConstraint=eastwest;rotatable=0;whiteSpace=wrap;html=1;fontColor=#333333;" parent="204" vertex="1">
                    <mxGeometry y="30" width="250" height="20" as="geometry"/>
                </mxCell>
                <mxCell id="396" value="&lt;span style=&quot;color: rgb(0, 0, 0);&quot;&gt;start_hour: date&lt;/span&gt;" style="rounded=0;whiteSpace=wrap;html=1;" vertex="1" parent="184">
                    <mxGeometry y="80" width="250" height="30" as="geometry"/>
                </mxCell>
                <mxCell id="397" value="&lt;span style=&quot;color: rgb(0, 0, 0);&quot;&gt;end_hour: date&lt;/span&gt;" style="rounded=0;whiteSpace=wrap;html=1;" vertex="1" parent="184">
                    <mxGeometry y="110" width="250" height="30" as="geometry"/>
                </mxCell>
                <mxCell id="190" value="shift_production_assignment" style="swimlane;whiteSpace=wrap;html=1;fillColor=#e1d5e7;strokeColor=#9673a6;" parent="1" vertex="1">
                    <mxGeometry x="1920" y="1710" width="250" height="510" as="geometry">
                        <mxRectangle x="160" y="210" width="90" height="30" as="alternateBounds"/>
                    </mxGeometry>
                </mxCell>
                <mxCell id="191" value="item_id: integer, FK" style="rounded=0;whiteSpace=wrap;html=1;" parent="190" vertex="1">
                    <mxGeometry y="80" width="250" height="30" as="geometry"/>
                </mxCell>
                <mxCell id="192" value="&lt;span style=&quot;color: rgb(0, 0, 0);&quot;&gt;shift_id: integer, FK&lt;/span&gt;" style="rounded=0;whiteSpace=wrap;html=1;" parent="190" vertex="1">
                    <mxGeometry y="50" width="250" height="30" as="geometry"/>
                </mxCell>
                <mxCell id="193" value="&lt;span style=&quot;color: rgb(0, 0, 0);&quot;&gt;id: integer, inc, PK&lt;/span&gt;" style="rounded=0;whiteSpace=wrap;html=1;" parent="190" vertex="1">
                    <mxGeometry y="20" width="250" height="30" as="geometry"/>
                </mxCell>
                <mxCell id="194" value="machine_id&lt;span style=&quot;font-family: monospace; font-size: 0px; text-align: start; text-wrap-mode: nowrap;&quot;&gt;%3CmxGraphModel%3E%3Croot%3E%3CmxCell%20id%3D%220%22%2F%3E%3CmxCell%20id%3D%221%22%20parent%3D%220%22%2F%3E%3CmxCell%20id%3D%222%22%20value%3D%22end_date%3A%20date%22%20style%3D%22rounded%3D0%3BwhiteSpace%3Dwrap%3Bhtml%3D1%3B%22%20vertex%3D%221%22%20parent%3D%221%22%3E%3CmxGeometry%20x%3D%222580%22%20y%3D%221410%22%20width%3D%22250%22%20height%3D%2230%22%20as%3D%22geometry%22%2F%3E%3C%2FmxCell%3E%3C%2Froot%3E%3C%2FmxGraphModel%3E&lt;/span&gt;: integer, FK" style="rounded=0;whiteSpace=wrap;html=1;" parent="190" vertex="1">
                    <mxGeometry y="110" width="250" height="30" as="geometry"/>
                </mxCell>
                <mxCell id="195" value="production_employee_id&lt;span style=&quot;font-family: monospace; font-size: 0px; text-align: start; text-wrap-mode: nowrap;&quot;&gt;%3CmxGraphModel%3E%3Croot%3E%3CmxCell%20id%3D%220%22%2F%3E%3CmxCell%20id%3D%221%22%20parent%3D%220%22%2F%3E%3CmxCell%20id%3D%222%22%20value%3D%22end_date%3A%20date%22%20style%3D%22rounded%3D0%3BwhiteSpace%3Dwrap%3Bhtml%3D1%3B%22%20vertex%3D%221%22%20parent%3D%221%22%3E%3CmxGeometry%20x%3D%222580%22%20y%3D%221410%22%20width%3D%22250%22%20height%3D%2230%22%20as%3D%22geometry%22%2F%3E%3C%2FmxCell%3E%3C%2Froot%3E%3C%2FmxGraphModel%3E&lt;/span&gt;: integer, FK" style="rounded=0;whiteSpace=wrap;html=1;" parent="190" vertex="1">
                    <mxGeometry y="140" width="250" height="30" as="geometry"/>
                </mxCell>
                <mxCell id="198" value="&lt;span style=&quot;color: rgb(0, 0, 0);&quot;&gt;start_date: date&lt;/span&gt;" style="rounded=0;whiteSpace=wrap;html=1;" parent="190" vertex="1">
                    <mxGeometry y="170" width="250" height="30" as="geometry"/>
                </mxCell>
                <mxCell id="199" value="end_date: date" style="rounded=0;whiteSpace=wrap;html=1;" parent="190" vertex="1">
                    <mxGeometry y="200" width="250" height="30" as="geometry"/>
                </mxCell>
                <mxCell id="200" value="start_hour&lt;span style=&quot;font-family: monospace; font-size: 0px; text-align: start; text-wrap-mode: nowrap;&quot;&gt;%3CmxGraphModel%3E%3Croot%3E%3CmxCell%20id%3D%220%22%2F%3E%3CmxCell%20id%3D%221%22%20parent%3D%220%22%2F%3E%3CmxCell%20id%3D%222%22%20value%3D%22end_date%3A%20date%22%20style%3D%22rounded%3D0%3BwhiteSpace%3Dwrap%3Bhtml%3D1%3B%22%20vertex%3D%221%22%20parent%3D%221%22%3E%3CmxGeometry%20x%3D%222580%22%20y%3D%221410%22%20width%3D%22250%22%20height%3D%2230%22%20as%3D%22geometry%22%2F%3E%3C%2FmxCell%3E%3C%2Froot%3E%3C%2FmxGraphModel%3E&lt;/span&gt;: integer" style="rounded=0;whiteSpace=wrap;html=1;" parent="190" vertex="1">
                    <mxGeometry y="230" width="250" height="30" as="geometry"/>
                </mxCell>
                <mxCell id="201" value="end_hour&lt;span style=&quot;font-family: monospace; font-size: 0px; text-align: start; text-wrap-mode: nowrap;&quot;&gt;%3CmxGraphModel%3E%3Croot%3E%3CmxCell%20id%3D%220%22%2F%3E%3CmxCell%20id%3D%221%22%20parent%3D%220%22%2F%3E%3CmxCell%20id%3D%222%22%20value%3D%22end_date%3A%20date%22%20style%3D%22rounded%3D0%3BwhiteSpace%3Dwrap%3Bhtml%3D1%3B%22%20vertex%3D%221%22%20parent%3D%221%22%3E%3CmxGeometry%20x%3D%222580%22%20y%3D%221410%22%20width%3D%22250%22%20height%3D%2230%22%20as%3D%22geometry%22%2F%3E%3C%2FmxCell%3E%3C%2Froot%3E%3C%2FmxGraphModel%3E&lt;/span&gt;: integer" style="rounded=0;whiteSpace=wrap;html=1;" parent="190" vertex="1">
                    <mxGeometry y="260" width="250" height="30" as="geometry"/>
                </mxCell>
                <mxCell id="202" value="high_quality_quantity&lt;span style=&quot;font-family: monospace; font-size: 0px; text-align: start; text-wrap-mode: nowrap;&quot;&gt;%3CmxGraphModel%3E%3Croot%3E%3CmxCell%20id%3D%220%22%2F%3E%3CmxCell%20id%3D%221%22%20parent%3D%220%22%2F%3E%3CmxCell%20id%3D%222%22%20value%3D%22end_date%3A%20date%22%20style%3D%22rounded%3D0%3BwhiteSpace%3Dwrap%3Bhtml%3D1%3B%22%20vertex%3D%221%22%20parent%3D%221%22%3E%3CmxGeometry%20x%3D%222580%22%20y%3D%221410%22%20width%3D%22250%22%20height%3D%2230%22%20as%3D%22geometry%22%2F%3E%3C%2FmxCell%3E%3C%2Froot%3E%3C%2FmxGraphModel%3E&lt;/span&gt;: integer" style="rounded=0;whiteSpace=wrap;html=1;" parent="190" vertex="1">
                    <mxGeometry y="290" width="250" height="30" as="geometry"/>
                </mxCell>
                <mxCell id="203" value="low_quality_quantity&lt;span style=&quot;font-family: monospace; font-size: 0px; text-align: start; text-wrap-mode: nowrap;&quot;&gt;%3CmxGraphModel%3E%3Croot%3E%3CmxCell%20id%3D%220%22%2F%3E%3CmxCell%20id%3D%221%22%20parent%3D%220%22%2F%3E%3CmxCell%20id%3D%222%22%20value%3D%22end_date%3A%20date%22%20style%3D%22rounded%3D0%3BwhiteSpace%3Dwrap%3Bhtml%3D1%3B%22%20vertex%3D%221%22%20parent%3D%221%22%3E%3CmxGeometry%20x%3D%222580%22%20y%3D%221410%22%20width%3D%22250%22%20height%3D%2230%22%20as%3D%22geometry%22%2F%3E%3C%2FmxCell%3E%3C%2Froot%3E%3C%2FmxGraphModel%3E&lt;/span&gt;: integer" style="rounded=0;whiteSpace=wrap;html=1;" parent="190" vertex="1">
                    <mxGeometry y="320" width="250" height="30" as="geometry"/>
                </mxCell>
                <mxCell id="211" value="constrains" style="swimlane;fontStyle=0;childLayout=stackLayout;horizontal=1;startSize=30;horizontalStack=0;resizeParent=1;resizeParentMax=0;resizeLast=0;collapsible=1;marginBottom=0;whiteSpace=wrap;html=1;fillColor=#f8cecc;strokeColor=#b85450;" parent="190" vertex="1">
                    <mxGeometry y="380" width="250" height="130" as="geometry"/>
                </mxCell>
                <mxCell id="213" value="0 &amp;gt;= start_hour &amp;lt;= 23" style="text;align=left;verticalAlign=middle;spacingLeft=4;spacingRight=4;overflow=hidden;points=[[0,0.5],[1,0.5]];portConstraint=eastwest;rotatable=0;whiteSpace=wrap;html=1;fillColor=#f5f5f5;fontColor=#333333;strokeColor=#666666;" parent="211" vertex="1">
                    <mxGeometry y="30" width="250" height="20" as="geometry"/>
                </mxCell>
                <mxCell id="214" value="0 &amp;gt;= end_hour &amp;lt;= 23" style="text;align=left;verticalAlign=middle;spacingLeft=4;spacingRight=4;overflow=hidden;points=[[0,0.5],[1,0.5]];portConstraint=eastwest;rotatable=0;whiteSpace=wrap;html=1;fillColor=#f5f5f5;fontColor=#333333;strokeColor=#666666;" parent="211" vertex="1">
                    <mxGeometry y="50" width="250" height="20" as="geometry"/>
                </mxCell>
                <mxCell id="215" value="start_date &amp;lt;= end_date" style="text;align=left;verticalAlign=middle;spacingLeft=4;spacingRight=4;overflow=hidden;points=[[0,0.5],[1,0.5]];portConstraint=eastwest;rotatable=0;whiteSpace=wrap;html=1;fillColor=#f5f5f5;fontColor=#333333;strokeColor=#666666;" parent="211" vertex="1">
                    <mxGeometry y="70" width="250" height="20" as="geometry"/>
                </mxCell>
                <mxCell id="217" value="high_quality_quantity &amp;gt; 0" style="text;align=left;verticalAlign=middle;spacingLeft=4;spacingRight=4;overflow=hidden;points=[[0,0.5],[1,0.5]];portConstraint=eastwest;rotatable=0;whiteSpace=wrap;html=1;fillColor=#f5f5f5;fontColor=#333333;strokeColor=#666666;" parent="211" vertex="1">
                    <mxGeometry y="90" width="250" height="20" as="geometry"/>
                </mxCell>
                <mxCell id="216" value="low_quality_quantity &amp;gt; 0" style="text;align=left;verticalAlign=middle;spacingLeft=4;spacingRight=4;overflow=hidden;points=[[0,0.5],[1,0.5]];portConstraint=eastwest;rotatable=0;whiteSpace=wrap;html=1;fillColor=#f5f5f5;fontColor=#333333;strokeColor=#666666;" parent="211" vertex="1">
                    <mxGeometry y="110" width="250" height="20" as="geometry"/>
                </mxCell>
                <mxCell id="196" style="edgeStyle=orthogonalEdgeStyle;html=1;" parent="1" source="192" edge="1">
                    <mxGeometry relative="1" as="geometry">
                        <Array as="points">
                            <mxPoint x="890" y="1775"/>
                            <mxPoint x="890" y="1550"/>
                        </Array>
                        <mxPoint x="560" y="1550" as="targetPoint"/>
                    </mxGeometry>
                </mxCell>
                <mxCell id="218" style="edgeStyle=orthogonalEdgeStyle;html=1;entryX=1;entryY=0.75;entryDx=0;entryDy=0;strokeColor=#660000;" parent="1" source="179" target="97" edge="1">
                    <mxGeometry relative="1" as="geometry">
                        <Array as="points">
                            <mxPoint x="600" y="1405"/>
                            <mxPoint x="600" y="1023"/>
                        </Array>
                    </mxGeometry>
                </mxCell>
                <mxCell id="220" style="edgeStyle=orthogonalEdgeStyle;html=1;entryX=1;entryY=0.75;entryDx=0;entryDy=0;" parent="1" source="110" target="52" edge="1">
                    <mxGeometry relative="1" as="geometry"/>
                </mxCell>
                <mxCell id="221" style="html=1;entryX=1;entryY=1;entryDx=0;entryDy=0;edgeStyle=orthogonalEdgeStyle;" parent="1" source="191" target="361" edge="1">
                    <mxGeometry relative="1" as="geometry">
                        <Array as="points">
                            <mxPoint x="1390" y="1805"/>
                            <mxPoint x="1390" y="410"/>
                        </Array>
                        <mxPoint x="1340" y="450" as="targetPoint"/>
                    </mxGeometry>
                </mxCell>
                <mxCell id="222" style="edgeStyle=orthogonalEdgeStyle;html=1;entryX=1;entryY=0.25;entryDx=0;entryDy=0;" parent="1" source="194" target="83" edge="1">
                    <mxGeometry relative="1" as="geometry">
                        <Array as="points">
                            <mxPoint x="1870" y="1835"/>
                            <mxPoint x="1870" y="1430"/>
                            <mxPoint x="1010" y="1430"/>
                            <mxPoint x="1010" y="818"/>
                        </Array>
                    </mxGeometry>
                </mxCell>
                <mxCell id="223" style="edgeStyle=orthogonalEdgeStyle;html=1;entryX=1;entryY=0.25;entryDx=0;entryDy=0;" parent="1" source="195" target="175" edge="1">
                    <mxGeometry relative="1" as="geometry">
                        <Array as="points">
                            <mxPoint x="1910" y="1865"/>
                            <mxPoint x="1910" y="1338"/>
                        </Array>
                    </mxGeometry>
                </mxCell>
                <mxCell id="256" value="machine_issues" style="swimlane;whiteSpace=wrap;html=1;fillColor=#1ba1e2;strokeColor=#006EAF;fontColor=#ffffff;" parent="1" vertex="1">
                    <mxGeometry x="310" y="1830" width="240" height="140" as="geometry">
                        <mxRectangle x="160" y="210" width="90" height="30" as="alternateBounds"/>
                    </mxGeometry>
                </mxCell>
                <mxCell id="257" value="machine_issue_id: text, unique" style="rounded=0;whiteSpace=wrap;html=1;" parent="256" vertex="1">
                    <mxGeometry y="50" width="240" height="30" as="geometry"/>
                </mxCell>
                <mxCell id="258" value="name: text, unique" style="rounded=0;whiteSpace=wrap;html=1;" parent="256" vertex="1">
                    <mxGeometry y="80" width="240" height="30" as="geometry"/>
                </mxCell>
                <mxCell id="259" value="&lt;span style=&quot;color: rgb(0, 0, 0);&quot;&gt;id: integer, inc, PK&lt;/span&gt;" style="rounded=0;whiteSpace=wrap;html=1;" parent="256" vertex="1">
                    <mxGeometry y="20" width="240" height="30" as="geometry"/>
                </mxCell>
                <mxCell id="260" value="description: text" style="rounded=0;whiteSpace=wrap;html=1;" parent="256" vertex="1">
                    <mxGeometry y="110" width="240" height="30" as="geometry"/>
                </mxCell>
                <mxCell id="261" value="machine_faults" style="swimlane;whiteSpace=wrap;html=1;fillColor=#1ba1e2;strokeColor=#006EAF;fontColor=#ffffff;" parent="1" vertex="1">
                    <mxGeometry x="1470" y="1830" width="240" height="290" as="geometry">
                        <mxRectangle x="160" y="210" width="90" height="30" as="alternateBounds"/>
                    </mxGeometry>
                </mxCell>
                <mxCell id="262" value="machine_issue_id: integer, FK" style="rounded=0;whiteSpace=wrap;html=1;" parent="261" vertex="1">
                    <mxGeometry y="50" width="240" height="30" as="geometry"/>
                </mxCell>
                <mxCell id="263" value="machine_id: integer, FK" style="rounded=0;whiteSpace=wrap;html=1;" parent="261" vertex="1">
                    <mxGeometry y="80" width="240" height="30" as="geometry"/>
                </mxCell>
                <mxCell id="264" value="&lt;span style=&quot;color: rgb(0, 0, 0);&quot;&gt;id: integer, inc, PK&lt;/span&gt;" style="rounded=0;whiteSpace=wrap;html=1;" parent="261" vertex="1">
                    <mxGeometry y="20" width="240" height="30" as="geometry"/>
                </mxCell>
                <mxCell id="265" value="date: date" style="rounded=0;whiteSpace=wrap;html=1;" parent="261" vertex="1">
                    <mxGeometry y="110" width="240" height="30" as="geometry"/>
                </mxCell>
                <mxCell id="266" value="start_date!: integer" style="rounded=0;whiteSpace=wrap;html=1;fillColor=#fff2cc;strokeColor=#d6b656;" parent="261" vertex="1">
                    <mxGeometry y="140" width="240" height="30" as="geometry"/>
                </mxCell>
                <mxCell id="267" value="end_date!: integer" style="rounded=0;whiteSpace=wrap;html=1;fillColor=#fff2cc;strokeColor=#d6b656;" parent="261" vertex="1">
                    <mxGeometry y="170" width="240" height="30" as="geometry"/>
                </mxCell>
                <mxCell id="343" value="start_hour!: integer" style="rounded=0;whiteSpace=wrap;html=1;fillColor=#fff2cc;strokeColor=#d6b656;" parent="261" vertex="1">
                    <mxGeometry y="200" width="240" height="30" as="geometry"/>
                </mxCell>
                <mxCell id="344" value="end_hour!: integer" style="rounded=0;whiteSpace=wrap;html=1;fillColor=#fff2cc;strokeColor=#d6b656;" parent="261" vertex="1">
                    <mxGeometry y="230" width="240" height="30" as="geometry"/>
                </mxCell>
                <mxCell id="345" value="comment: text" style="rounded=0;whiteSpace=wrap;html=1;" parent="261" vertex="1">
                    <mxGeometry y="260" width="240" height="30" as="geometry"/>
                </mxCell>
                <mxCell id="269" value="machine_fault_assignees" style="swimlane;whiteSpace=wrap;html=1;fillColor=#1ba1e2;strokeColor=#006EAF;fontColor=#ffffff;" parent="1" vertex="1">
                    <mxGeometry x="1920" y="2260" width="240" height="110" as="geometry">
                        <mxRectangle x="160" y="210" width="90" height="30" as="alternateBounds"/>
                    </mxGeometry>
                </mxCell>
                <mxCell id="270" value="employee_id: integer, FK" style="rounded=0;whiteSpace=wrap;html=1;" parent="269" vertex="1">
                    <mxGeometry y="80" width="240" height="30" as="geometry"/>
                </mxCell>
                <mxCell id="272" value="&lt;span style=&quot;color: rgb(0, 0, 0);&quot;&gt;id: integer, inc, PK&lt;/span&gt;" style="rounded=0;whiteSpace=wrap;html=1;" parent="269" vertex="1">
                    <mxGeometry y="20" width="240" height="30" as="geometry"/>
                </mxCell>
                <mxCell id="288" value="machine_fault_id: integer, FK" style="rounded=0;whiteSpace=wrap;html=1;" parent="269" vertex="1">
                    <mxGeometry y="50" width="240" height="30" as="geometry"/>
                </mxCell>
                <mxCell id="276" value="machine_fault_technicians" style="swimlane;whiteSpace=wrap;html=1;fillColor=#1ba1e2;strokeColor=#006EAF;fontColor=#ffffff;" parent="1" vertex="1">
                    <mxGeometry x="1920" y="2450" width="240" height="140" as="geometry">
                        <mxRectangle x="160" y="210" width="90" height="30" as="alternateBounds"/>
                    </mxGeometry>
                </mxCell>
                <mxCell id="277" value="machine_fault_id: integer, FK" style="rounded=0;whiteSpace=wrap;html=1;" parent="276" vertex="1">
                    <mxGeometry y="50" width="240" height="30" as="geometry"/>
                </mxCell>
                <mxCell id="279" value="&lt;span style=&quot;color: rgb(0, 0, 0);&quot;&gt;id: integer, inc, PK&lt;/span&gt;" style="rounded=0;whiteSpace=wrap;html=1;" parent="276" vertex="1">
                    <mxGeometry y="20" width="240" height="30" as="geometry"/>
                </mxCell>
                <mxCell id="268" value="technician_id: integer, FK" style="rounded=0;whiteSpace=wrap;html=1;" parent="276" vertex="1">
                    <mxGeometry y="80" width="240" height="30" as="geometry"/>
                </mxCell>
                <mxCell id="286" value="service_fee: double" style="rounded=0;whiteSpace=wrap;html=1;fillColor=#ffe6cc;strokeColor=#d79b00;" parent="276" vertex="1">
                    <mxGeometry y="110" width="240" height="30" as="geometry"/>
                </mxCell>
                <mxCell id="283" value="technicians" style="swimlane;whiteSpace=wrap;html=1;fillColor=#1ba1e2;strokeColor=#006EAF;fontColor=#ffffff;" parent="1" vertex="1">
                    <mxGeometry x="310" y="2200" width="240" height="110" as="geometry">
                        <mxRectangle x="160" y="210" width="90" height="30" as="alternateBounds"/>
                    </mxGeometry>
                </mxCell>
                <mxCell id="284" value="name: text" style="rounded=0;whiteSpace=wrap;html=1;" parent="283" vertex="1">
                    <mxGeometry y="80" width="240" height="30" as="geometry"/>
                </mxCell>
                <mxCell id="285" value="&lt;span style=&quot;color: rgb(0, 0, 0);&quot;&gt;id: integer, inc, PK&lt;/span&gt;" style="rounded=0;whiteSpace=wrap;html=1;" parent="283" vertex="1">
                    <mxGeometry y="20" width="240" height="30" as="geometry"/>
                </mxCell>
                <mxCell id="287" value="technician_id: text" style="rounded=0;whiteSpace=wrap;html=1;" parent="283" vertex="1">
                    <mxGeometry y="50" width="240" height="30" as="geometry"/>
                </mxCell>
                <mxCell id="289" style="edgeStyle=orthogonalEdgeStyle;html=1;entryX=1;entryY=0.25;entryDx=0;entryDy=0;" parent="1" source="288" target="264" edge="1">
                    <mxGeometry relative="1" as="geometry">
                        <Array as="points">
                            <mxPoint x="1840" y="2325"/>
                            <mxPoint x="1840" y="1858"/>
                        </Array>
                    </mxGeometry>
                </mxCell>
                <mxCell id="290" style="edgeStyle=orthogonalEdgeStyle;html=1;entryX=1;entryY=0.25;entryDx=0;entryDy=0;" parent="1" source="262" target="259" edge="1">
                    <mxGeometry relative="1" as="geometry"/>
                </mxCell>
                <mxCell id="291" style="edgeStyle=orthogonalEdgeStyle;html=1;entryX=1;entryY=0;entryDx=0;entryDy=0;" parent="1" source="270" target="134" edge="1">
                    <mxGeometry relative="1" as="geometry">
                        <Array as="points">
                            <mxPoint x="1880" y="2355"/>
                            <mxPoint x="1880" y="1790"/>
                            <mxPoint x="1060" y="1790"/>
                            <mxPoint x="1060" y="1100"/>
                        </Array>
                    </mxGeometry>
                </mxCell>
                <mxCell id="292" style="edgeStyle=orthogonalEdgeStyle;html=1;entryX=1;entryY=0.75;entryDx=0;entryDy=0;" parent="1" source="263" target="90" edge="1">
                    <mxGeometry relative="1" as="geometry"/>
                </mxCell>
                <mxCell id="293" style="edgeStyle=orthogonalEdgeStyle;html=1;entryX=1;entryY=0.5;entryDx=0;entryDy=0;" parent="1" source="277" target="264" edge="1">
                    <mxGeometry relative="1" as="geometry">
                        <Array as="points">
                            <mxPoint x="1860" y="2515"/>
                            <mxPoint x="1860" y="1865"/>
                        </Array>
                    </mxGeometry>
                </mxCell>
                <mxCell id="294" style="edgeStyle=orthogonalEdgeStyle;html=1;entryX=1;entryY=0.5;entryDx=0;entryDy=0;" parent="1" source="268" target="285" edge="1">
                    <mxGeometry relative="1" as="geometry">
                        <Array as="points">
                            <mxPoint x="1820" y="2545"/>
                            <mxPoint x="1820" y="2235"/>
                        </Array>
                    </mxGeometry>
                </mxCell>
                <mxCell id="295" value="production_supplies" style="swimlane;whiteSpace=wrap;html=1;fillColor=#1ba1e2;strokeColor=#006EAF;fontColor=#ffffff;startSize=23;" parent="1" vertex="1">
                    <mxGeometry x="310" y="-270" width="200" height="140" as="geometry">
                        <mxRectangle x="160" y="210" width="90" height="30" as="alternateBounds"/>
                    </mxGeometry>
                </mxCell>
                <mxCell id="296" value="production_supply_id: text, unique, not null" style="rounded=0;whiteSpace=wrap;html=1;" parent="295" vertex="1">
                    <mxGeometry y="50" width="200" height="30" as="geometry"/>
                </mxCell>
                <mxCell id="297" value="name: text, not null" style="rounded=0;whiteSpace=wrap;html=1;" parent="295" vertex="1">
                    <mxGeometry y="80" width="200" height="30" as="geometry"/>
                </mxCell>
                <mxCell id="298" value="type: text" style="rounded=0;whiteSpace=wrap;html=1;" parent="295" vertex="1">
                    <mxGeometry y="110" width="200" height="30" as="geometry"/>
                </mxCell>
                <mxCell id="300" value="&lt;span style=&quot;color: rgb(0, 0, 0);&quot;&gt;id: integer, inc, PK&lt;/span&gt;" style="rounded=0;whiteSpace=wrap;html=1;" parent="295" vertex="1">
                    <mxGeometry y="20" width="200" height="30" as="geometry"/>
                </mxCell>
                <mxCell id="301" value="account_categories" style="swimlane;whiteSpace=wrap;html=1;fillColor=#e3c800;strokeColor=#B09500;fontColor=#000000;startSize=23;" parent="1" vertex="1">
                    <mxGeometry x="310" y="-530" width="250" height="140" as="geometry">
                        <mxRectangle x="160" y="210" width="90" height="30" as="alternateBounds"/>
                    </mxGeometry>
                </mxCell>
                <mxCell id="302" value="account_category_id: text, unique, not null" style="rounded=0;whiteSpace=wrap;html=1;" parent="301" vertex="1">
                    <mxGeometry y="50" width="250" height="30" as="geometry"/>
                </mxCell>
                <mxCell id="306" style="edgeStyle=orthogonalEdgeStyle;html=1;entryX=0;entryY=0.5;entryDx=0;entryDy=0;exitX=0;exitY=0.5;exitDx=0;exitDy=0;" parent="301" source="303" target="305" edge="1">
                    <mxGeometry relative="1" as="geometry">
                        <Array as="points">
                            <mxPoint x="-20" y="95"/>
                            <mxPoint x="-20" y="35"/>
                        </Array>
                    </mxGeometry>
                </mxCell>
                <mxCell id="303" value="parent_account_category_id: integer, FK" style="rounded=0;whiteSpace=wrap;html=1;" parent="301" vertex="1">
                    <mxGeometry y="80" width="250" height="30" as="geometry"/>
                </mxCell>
                <mxCell id="304" value="name: text, unique" style="rounded=0;whiteSpace=wrap;html=1;" parent="301" vertex="1">
                    <mxGeometry y="110" width="250" height="30" as="geometry"/>
                </mxCell>
                <mxCell id="305" value="&lt;span style=&quot;color: rgb(0, 0, 0);&quot;&gt;id: integer, inc, PK&lt;/span&gt;" style="rounded=0;whiteSpace=wrap;html=1;" parent="301" vertex="1">
                    <mxGeometry y="20" width="250" height="30" as="geometry"/>
                </mxCell>
                <mxCell id="308" value="accounts" style="swimlane;whiteSpace=wrap;html=1;fillColor=#e3c800;strokeColor=#B09500;fontColor=#000000;startSize=23;" parent="1" vertex="1">
                    <mxGeometry x="670" y="-530" width="250" height="140" as="geometry">
                        <mxRectangle x="160" y="210" width="90" height="30" as="alternateBounds"/>
                    </mxGeometry>
                </mxCell>
                <mxCell id="309" value="account_id: text, unique, not null" style="rounded=0;whiteSpace=wrap;html=1;" parent="308" vertex="1">
                    <mxGeometry y="50" width="250" height="30" as="geometry"/>
                </mxCell>
                <mxCell id="311" value="&lt;span style=&quot;color: rgb(0, 0, 0);&quot;&gt;account_category_id&lt;/span&gt;: integer, FK" style="rounded=0;whiteSpace=wrap;html=1;" parent="308" vertex="1">
                    <mxGeometry y="80" width="250" height="30" as="geometry"/>
                </mxCell>
                <mxCell id="312" value="name: text, unique" style="rounded=0;whiteSpace=wrap;html=1;" parent="308" vertex="1">
                    <mxGeometry y="110" width="250" height="30" as="geometry"/>
                </mxCell>
                <mxCell id="313" value="&lt;span style=&quot;color: rgb(0, 0, 0);&quot;&gt;id: integer, inc, PK&lt;/span&gt;" style="rounded=0;whiteSpace=wrap;html=1;" parent="308" vertex="1">
                    <mxGeometry y="20" width="250" height="30" as="geometry"/>
                </mxCell>
                <mxCell id="310" style="edgeStyle=orthogonalEdgeStyle;html=1;entryX=1;entryY=0.25;entryDx=0;entryDy=0;exitX=0;exitY=0.5;exitDx=0;exitDy=0;" parent="1" source="311" target="301" edge="1">
                    <mxGeometry relative="1" as="geometry">
                        <Array as="points">
                            <mxPoint x="620" y="-435"/>
                            <mxPoint x="620" y="-495"/>
                        </Array>
                    </mxGeometry>
                </mxCell>
                <mxCell id="314" value="transaction" style="swimlane;whiteSpace=wrap;html=1;fillColor=#1ba1e2;strokeColor=#006EAF;fontColor=#ffffff;startSize=23;" parent="1" vertex="1">
                    <mxGeometry x="310" y="-740" width="250" height="80" as="geometry">
                        <mxRectangle x="160" y="210" width="90" height="30" as="alternateBounds"/>
                    </mxGeometry>
                </mxCell>
                <mxCell id="315" value="date: text, unique, not null" style="rounded=0;whiteSpace=wrap;html=1;" parent="314" vertex="1">
                    <mxGeometry y="50" width="250" height="30" as="geometry"/>
                </mxCell>
                <mxCell id="318" value="&lt;span style=&quot;color: rgb(0, 0, 0);&quot;&gt;id: integer, inc, PK&lt;/span&gt;" style="rounded=0;whiteSpace=wrap;html=1;" parent="314" vertex="1">
                    <mxGeometry y="20" width="250" height="30" as="geometry"/>
                </mxCell>
                <mxCell id="319" value="transaction_detail" style="swimlane;whiteSpace=wrap;html=1;startSize=23;fillColor=#1ba1e2;fontColor=#ffffff;strokeColor=#006EAF;" parent="1" vertex="1">
                    <mxGeometry x="1220" y="-730" width="250" height="200" as="geometry">
                        <mxRectangle x="160" y="210" width="90" height="30" as="alternateBounds"/>
                    </mxGeometry>
                </mxCell>
                <mxCell id="320" value="transaction_id: integer, FK" style="rounded=0;whiteSpace=wrap;html=1;" parent="319" vertex="1">
                    <mxGeometry y="50" width="250" height="30" as="geometry"/>
                </mxCell>
                <mxCell id="321" value="&lt;span style=&quot;color: rgb(0, 0, 0);&quot;&gt;id: integer, inc, PK&lt;/span&gt;" style="rounded=0;whiteSpace=wrap;html=1;" parent="319" vertex="1">
                    <mxGeometry y="20" width="250" height="30" as="geometry"/>
                </mxCell>
                <mxCell id="323" value="role: text (debtor |&amp;nbsp;creditor)" style="rounded=0;whiteSpace=wrap;html=1;" parent="319" vertex="1">
                    <mxGeometry y="110" width="250" height="30" as="geometry"/>
                </mxCell>
                <mxCell id="346" value="comment: text" style="rounded=0;whiteSpace=wrap;html=1;" parent="319" vertex="1">
                    <mxGeometry y="170" width="250" height="30" as="geometry"/>
                </mxCell>
                <mxCell id="331" value="&lt;span style=&quot;color: rgb(0, 0, 0);&quot;&gt;account_id&lt;/span&gt;: integer, FK" style="rounded=0;whiteSpace=wrap;html=1;" parent="319" vertex="1">
                    <mxGeometry y="80" width="250" height="30" as="geometry"/>
                </mxCell>
                <mxCell id="332" style="edgeStyle=orthogonalEdgeStyle;html=1;entryX=1;entryY=0.25;entryDx=0;entryDy=0;" parent="1" source="3" target="313" edge="1">
                    <mxGeometry relative="1" as="geometry">
                        <Array as="points">
                            <mxPoint x="970" y="-35"/>
                            <mxPoint x="970" y="-502"/>
                            <mxPoint x="920" y="-502"/>
                        </Array>
                    </mxGeometry>
                </mxCell>
                <mxCell id="45" value="company_registration_number: text" style="rounded=0;whiteSpace=wrap;html=1;" parent="1" vertex="1">
                    <mxGeometry x="310" y="220" width="240" height="30" as="geometry"/>
                </mxCell>
                <mxCell id="46" value="credit_period: integer" style="rounded=0;whiteSpace=wrap;html=1;" parent="1" vertex="1">
                    <mxGeometry x="310" y="250" width="240" height="30" as="geometry"/>
                </mxCell>
                <mxCell id="48" value="&lt;span style=&quot;color: rgb(0, 0, 0);&quot;&gt;phone_number: text&lt;/span&gt;" style="rounded=0;whiteSpace=wrap;html=1;" parent="1" vertex="1">
                    <mxGeometry x="310" y="280" width="240" height="30" as="geometry"/>
                </mxCell>
                <mxCell id="47" value="&lt;span style=&quot;color: rgb(0, 0, 0);&quot;&gt;representative: text&lt;/span&gt;" style="rounded=0;whiteSpace=wrap;html=1;" parent="1" vertex="1">
                    <mxGeometry x="310" y="310" width="240" height="30" as="geometry"/>
                </mxCell>
                <mxCell id="333" style="edgeStyle=orthogonalEdgeStyle;html=1;entryX=1;entryY=0.5;entryDx=0;entryDy=0;" parent="1" source="43" target="313" edge="1">
                    <mxGeometry relative="1" as="geometry">
                        <Array as="points">
                            <mxPoint x="650" y="205"/>
                            <mxPoint x="650" y="110"/>
                            <mxPoint x="950" y="110"/>
                            <mxPoint x="950" y="-495"/>
                        </Array>
                    </mxGeometry>
                </mxCell>
                <mxCell id="334" style="edgeStyle=orthogonalEdgeStyle;html=1;entryX=1;entryY=0.75;entryDx=0;entryDy=0;" parent="1" source="134" target="313" edge="1">
                    <mxGeometry relative="1" as="geometry">
                        <Array as="points">
                            <mxPoint x="620" y="1115"/>
                            <mxPoint x="620" y="310"/>
                            <mxPoint x="940" y="310"/>
                            <mxPoint x="940" y="-487"/>
                        </Array>
                    </mxGeometry>
                </mxCell>
                <mxCell id="336" style="edgeStyle=orthogonalEdgeStyle;html=1;entryX=1;entryY=0.5;entryDx=0;entryDy=0;" parent="1" source="320" target="314" edge="1">
                    <mxGeometry relative="1" as="geometry"/>
                </mxCell>
                <mxCell id="347" value="" style="edgeStyle=orthogonalEdgeStyle;html=1;entryX=1;entryY=0;entryDx=0;entryDy=0;exitX=0;exitY=0.5;exitDx=0;exitDy=0;" parent="1" source="331" target="313" edge="1">
                    <mxGeometry relative="1" as="geometry">
                        <mxPoint x="1490" y="-615" as="sourcePoint"/>
                        <mxPoint x="920" y="-510" as="targetPoint"/>
                        <Array as="points">
                            <mxPoint x="1210" y="-635"/>
                            <mxPoint x="1210" y="-575"/>
                            <mxPoint x="1030" y="-575"/>
                            <mxPoint x="1030" y="-510"/>
                        </Array>
                    </mxGeometry>
                </mxCell>
                <mxCell id="322" value="amount: double" style="rounded=0;whiteSpace=wrap;html=1;" parent="1" vertex="1">
                    <mxGeometry x="1220" y="-590" width="250" height="30" as="geometry"/>
                </mxCell>
                <mxCell id="357" value="items" style="swimlane;whiteSpace=wrap;html=1;fillColor=#e3c800;strokeColor=#B09500;fontColor=#000000;" parent="1" vertex="1">
                    <mxGeometry x="1090" y="360" width="240" height="260" as="geometry">
                        <mxRectangle x="160" y="210" width="90" height="30" as="alternateBounds"/>
                    </mxGeometry>
                </mxCell>
                <mxCell id="358" value="item_id: text, unique" style="rounded=0;whiteSpace=wrap;html=1;" parent="357" vertex="1">
                    <mxGeometry y="50" width="240" height="30" as="geometry"/>
                </mxCell>
                <mxCell id="359" value="name: text, unique" style="rounded=0;whiteSpace=wrap;html=1;" parent="357" vertex="1">
                    <mxGeometry y="80" width="240" height="30" as="geometry"/>
                </mxCell>
                <mxCell id="360" value="raw_material_id: integer, FK" style="rounded=0;whiteSpace=wrap;html=1;" parent="357" vertex="1">
                    <mxGeometry y="110" width="240" height="30" as="geometry"/>
                </mxCell>
                <mxCell id="361" value="&lt;span style=&quot;color: rgb(0, 0, 0);&quot;&gt;id: integer, inc, PK&lt;/span&gt;" style="rounded=0;whiteSpace=wrap;html=1;" parent="357" vertex="1">
                    <mxGeometry y="20" width="240" height="30" as="geometry"/>
                </mxCell>
                <mxCell id="38" value="weight: double" style="rounded=0;whiteSpace=wrap;html=1;" parent="357" vertex="1">
                    <mxGeometry y="135" width="240" height="30" as="geometry"/>
                </mxCell>
                <mxCell id="41" value="length: double" style="rounded=0;whiteSpace=wrap;html=1;" parent="357" vertex="1">
                    <mxGeometry y="165" width="240" height="30" as="geometry"/>
                </mxCell>
                <mxCell id="40" value="production_estimated_duration: double" style="rounded=0;whiteSpace=wrap;html=1;" parent="357" vertex="1">
                    <mxGeometry y="195" width="240" height="30" as="geometry"/>
                </mxCell>
                <mxCell id="392" value="stages: integer" style="rounded=0;whiteSpace=wrap;html=1;" vertex="1" parent="357">
                    <mxGeometry y="225" width="240" height="30" as="geometry"/>
                </mxCell>
                <mxCell id="362" style="edgeStyle=orthogonalEdgeStyle;html=1;entryX=1;entryY=0.5;entryDx=0;entryDy=0;" parent="1" source="360" target="9" edge="1">
                    <mxGeometry relative="1" as="geometry"/>
                </mxCell>
                <mxCell id="368" value="shifts_changes" style="swimlane;whiteSpace=wrap;html=1;fillColor=#e3c800;strokeColor=#B09500;fontColor=#000000;" parent="1" vertex="1">
                    <mxGeometry x="1470" y="1490" width="250" height="170" as="geometry">
                        <mxRectangle x="160" y="210" width="90" height="30" as="alternateBounds"/>
                    </mxGeometry>
                </mxCell>
                <mxCell id="369" value="change_at: date" style="rounded=0;whiteSpace=wrap;html=1;" parent="368" vertex="1">
                    <mxGeometry y="80" width="250" height="30" as="geometry"/>
                </mxCell>
                <mxCell id="370" value="&lt;span style=&quot;color: rgb(0, 0, 0);&quot;&gt;employee_id: text, unique&lt;/span&gt;" style="rounded=0;whiteSpace=wrap;html=1;" parent="368" vertex="1">
                    <mxGeometry y="50" width="250" height="30" as="geometry"/>
                </mxCell>
                <mxCell id="371" value="&lt;span style=&quot;color: rgb(0, 0, 0);&quot;&gt;id: integer, inc, PK&lt;/span&gt;" style="rounded=0;whiteSpace=wrap;html=1;" parent="368" vertex="1">
                    <mxGeometry y="20" width="250" height="30" as="geometry"/>
                </mxCell>
                <mxCell id="372" value="old_shift_hours: integer" style="rounded=0;whiteSpace=wrap;html=1;" parent="368" vertex="1">
                    <mxGeometry y="110" width="250" height="30" as="geometry"/>
                </mxCell>
                <mxCell id="375" value="new_shift_hours: integer" style="rounded=0;whiteSpace=wrap;html=1;" parent="368" vertex="1">
                    <mxGeometry y="140" width="250" height="30" as="geometry"/>
                </mxCell>
                <mxCell id="378" style="html=1;entryX=0.981;entryY=0.092;entryDx=0;entryDy=0;entryPerimeter=0;edgeStyle=orthogonalEdgeStyle;" parent="1" source="370" target="132" edge="1">
                    <mxGeometry relative="1" as="geometry">
                        <Array as="points">
                            <mxPoint x="1430" y="1555"/>
                            <mxPoint x="1430" y="1071"/>
                        </Array>
                    </mxGeometry>
                </mxCell>
                <mxCell id="393" style="edgeStyle=orthogonalEdgeStyle;html=1;entryX=1;entryY=0.75;entryDx=0;entryDy=0;" edge="1" parent="1" source="114" target="361">
                    <mxGeometry relative="1" as="geometry">
                        <Array as="points">
                            <mxPoint x="1870" y="445"/>
                            <mxPoint x="1870" y="403"/>
                        </Array>
                    </mxGeometry>
                </mxCell>
                <mxCell id="394" style="edgeStyle=orthogonalEdgeStyle;html=1;entryX=1;entryY=0;entryDx=0;entryDy=0;" edge="1" parent="1" source="72" target="361">
                    <mxGeometry relative="1" as="geometry">
                        <Array as="points">
                            <mxPoint x="1890" y="235"/>
                            <mxPoint x="1890" y="380"/>
                        </Array>
                    </mxGeometry>
                </mxCell>
            </root>
        </mxGraphModel>
    </diagram>
</mxfile>